<svg viewBox="0 0 121 50" xmlns="http://www.w3.org/2000/svg" xml:space="preserve" style="fill-rule:evenodd;clip-rule:evenodd;stroke-linejoin:round;stroke-miterlimit:2"><path d="M47.627 93.044a.447.447 0 0 1-.218 0 .511.511 0 0 1-.361-.4c-.2-1.271 5.31-12.959 7.845-17.5 1.271-2.256 10.786-8.484 17.2-11.538.572-.271 4.28-2.053 4.393-1.85.113.203-3.347 2.9-3.528 3.054-5.641 4.528-15.727 16.374-20.992 23.113-3.353 4.294-3.966 5.046-4.339 5.121Z" style="fill:#fff;fill-rule:nonzero" transform="matrix(.48072 0 0 .48072 -3.605 -6.351)"/><path d="M99.311 17.943c8.868-.278 13.539 2.256 15.863 4.513a9.45 9.45 0 0 1 3.144 6.551c.06 3.362-3.573 4.37-5.746 4.979-.293.075-.647.173-.94.271 1.5.6 4.942 1.677 8.04 2.64 12.884 4.016 18.337 6.017 18.8 7.755.099.401-.028.825-.331 1.106-.692.579-2 .481-4.182.113l-.316-.053c-22.384-3.565-37.69-3.309-37.848-3.309-41.067.624-62.06 30.4-68.964 40.187-1.813 2.58-2.535 3.6-3.2 3.618a.928.928 0 0 1-.534-.181 1.415 1.415 0 0 1-.5-1.158c-.15-4.641 9.6-32.087 30.357-47.679C61.591 30.8 76.272 24.223 97.4 29.4a7.09 7.09 0 0 1-1.9-4.776c-6.205.812-17.3-.075-25.2-1.106-6.792-.91-18.27-2.76-19.007-5.378-.158-.572.075-1.188 1.542-2.046 6.6-3.881 16.073-4.723 16.073-4.723 26.71-2.582 30.403 6.572 30.403 6.572Z" style="fill:#fff;fill-rule:nonzero" transform="matrix(.48072 0 0 .48072 -.693 -.295)"/><path d="M83.493 6.473s-8.071-4.754-6.77-6.017c1.301-1.263 16.081 0 25.8 4.174 9.719 4.174 10.334 8.83 10.334 8.83-3.167-5.189-11.509-8.394-29.364-6.987Z" style="fill:#fff;fill-rule:nonzero" transform="matrix(.48072 0 0 .48072 -7.125 1.006)"/><path d="M170.583 47.169c-1.444.045-2.715.068-4.633.1a3.913 3.913 0 0 1-1.377-.269l-12.35-3.926c-.361-.113-2.708-.872-2.5-1.181.208-.309 2.369-.293 2.745-.278h.835c15.156.444 24.069 1.5 26.6 3.136a.83.83 0 0 1 .391.963c-.137.552-.279 1.176-9.711 1.455Z" style="fill:#fff;fill-rule:nonzero" transform="matrix(.48072 0 0 .48072 -15.838 -3.953)"/><path d="M47.525 52.009a2.04 2.04 0 0 1-1.188-.128c-.624-.256-.918-.752-1.5-1.5-1.5-1.835-2.106-3.911-1.617-5.4a2.778 2.778 0 0 1 2.053-1.805c2.956-.752 6.288.4 7.521 1.805 1 1.1.542 1.459-.752 2.535a23.779 23.779 0 0 0-2.144 2.031c-1.098 1.116-1.498 2.034-2.373 2.462Z" style="fill:#fff;fill-rule:nonzero" transform="matrix(.48072 0 0 .48072 -3.13 -4.11)"/><ellipse cx="29.123" cy="2.001" rx="29.123" ry="2.001" style="fill:#fff" transform="matrix(.48072 0 0 .48072 2 43.261)"/><path d="M100.992 83.444c-4.1 0-6.732-3.009-6.732-7.1l-.001-.1c0-5.183 4.265-9.447 9.447-9.447.071 0 .141 0 .212.002h7.288a1.466 1.466 0 0 1 1.437 1.707 1.464 1.464 0 0 1-1.437 1.2h-7.803c-3.408 0-6.213 2.805-6.213 6.213 0 .07.002.14.004.21.061 2.433 2.079 4.401 4.513 4.4h7.078a1.459 1.459 0 0 1 1.429 1.7 1.456 1.456 0 0 1-1.429 1.211l-7.793.004Z" style="fill:#fff;fill-rule:nonzero" transform="matrix(.48072 0 0 .48072 -9.231 -6.954)"/><path d="m135.328 82.385-1.346-3.2h-5.509a1.186 1.186 0 0 1-1.181-1.181 1.188 1.188 0 0 1 1.184-1.185h4.513l-2.6-6.183-9.4 12.252a1.319 1.319 0 0 1-1.038.519h-.028a1.322 1.322 0 0 1-1.316-1.316c0-.304.106-.6.299-.835l10.751-13.816a1.979 1.979 0 0 1 1.572-.94 1.303 1.303 0 0 1 1.211.94l5.852 13.727c.089.204.135.424.135.646 0 .883-.726 1.61-1.61 1.61h-.025a1.614 1.614 0 0 1-1.459-1.038h-.005Z" style="fill:#fff;fill-rule:nonzero" transform="matrix(.48072 0 0 .48072 -12.131 -6.919)"/><path d="m150.712 81.765 2.129-12.034h-4.588a1.459 1.459 0 0 1-1.429-1.7 1.456 1.456 0 0 1 1.429-1.211h12.591a1.46 1.46 0 0 1 1.429 1.707 1.457 1.457 0 0 1-1.429 1.2h-5.092l-2.219 12.546a1.442 1.442 0 0 1-1.407 1.188h-.001a1.444 1.444 0 0 1-1.413-1.7v.004Z" style="fill:#fff;fill-rule:nonzero" transform="matrix(.48072 0 0 .48072 -15.49 -6.957)"/><path d="M173.782 83.444c-4.1 0-6.732-3.009-6.732-7.1l-.001-.1c0-5.182 4.265-9.447 9.447-9.447l.196.002h7.3a1.466 1.466 0 0 1 1.429 1.707 1.463 1.463 0 0 1-1.429 1.2h-7.811c-3.408 0-6.213 2.805-6.213 6.213 0 .07.002.14.004.21.061 2.433 2.079 4.401 4.513 4.4h7.07a1.459 1.459 0 0 1 1.429 1.7 1.456 1.456 0 0 1-1.429 1.211l-7.773.004Z" style="fill:#fff;fill-rule:nonzero" transform="matrix(.48072 0 0 .48072 -17.904 -6.954)"/><path d="m191.453 81.828 2.447-13.84c.12-.684.72-1.187 1.414-1.188a1.436 1.436 0 0 1 1.406 1.655l-2.444 13.839a1.442 1.442 0 0 1-1.414 1.2 1.435 1.435 0 0 1-1.406-1.67l-.003.004Zm13.388 0 .985-5.551h-6.839a1.293 1.293 0 0 1-1.268-1.5 1.298 1.298 0 0 1 1.271-1.053h7.3l1-5.7a1.44 1.44 0 0 1 1.41-1.194 1.436 1.436 0 0 1 1.406 1.625l-2.452 13.87a1.44 1.44 0 0 1-1.406 1.173 1.444 1.444 0 0 1-1.407-1.67Z" style="fill:#fff;fill-rule:nonzero" transform="matrix(.48072 0 0 .48072 -20.809 -6.954)"/><path d="m231.71 81.765 2.129-12.034h-4.589a1.465 1.465 0 0 1-1.437-1.7c.12-.697.73-1.211 1.437-1.211h12.591a1.466 1.466 0 0 1 1.429 1.707 1.463 1.463 0 0 1-1.429 1.2h-5.1l-2.211 12.55a1.442 1.442 0 0 1-1.414 1.188h-.003a1.436 1.436 0 0 1-1.403-1.7Z" style="fill:#fff;fill-rule:nonzero" transform="matrix(.48072 0 0 .48072 -25.141 -6.957)"/><path d="m247.794 81.828 2.452-13.839a1.442 1.442 0 0 1 1.407-1.188 1.436 1.436 0 0 1 1.407 1.655l-2.444 13.839a1.442 1.442 0 0 1-1.407 1.2 1.443 1.443 0 0 1-1.414-1.67l-.001.003Zm13.388 0 .985-5.551H255.336a1.3 1.3 0 0 1-1.277-1.5 1.304 1.304 0 0 1 1.279-1.068h7.288l1.008-5.7a1.441 1.441 0 0 1 1.406-1.188 1.435 1.435 0 0 1 1.407 1.64L264 82.294a1.441 1.441 0 0 1-1.406 1.2 1.443 1.443 0 0 1-1.414-1.67l.002.004Z" style="fill:#fff;fill-rule:nonzero" transform="matrix(.48072 0 0 .48072 -27.522 -6.954)"/><path d="m289.951 82.385-1.354-3.2h-5.503a1.186 1.186 0 0 1-1.181-1.181 1.188 1.188 0 0 1 1.184-1.185h4.513l-2.6-6.183-9.4 12.252a1.319 1.319 0 0 1-1.038.519 1.323 1.323 0 0 1-1.308-1.316c0-.288.095-.569.27-.798l10.738-13.853c.342-.55.932-.901 1.579-.94a1.303 1.303 0 0 1 1.241.94l5.822 13.727c.089.204.135.424.135.646 0 .883-.726 1.61-1.61 1.61h-.025a1.614 1.614 0 0 1-1.459-1.038h-.004Z" style="fill:#fff;fill-rule:nonzero" transform="matrix(.48072 0 0 .48072 -30.558 -6.919)"/><path d="m305.292 81.765 2.129-12.034h-4.588a1.459 1.459 0 0 1-1.429-1.7 1.456 1.456 0 0 1 1.429-1.211h12.591a1.46 1.46 0 0 1 1.429 1.707 1.457 1.457 0 0 1-1.429 1.2h-5.092l-2.219 12.546a1.441 1.441 0 0 1-1.406 1.188h-.001a1.444 1.444 0 0 1-1.413-1.7l-.001.004Z" style="fill:#fff;fill-rule:nonzero" transform="matrix(.48072 0 0 .48072 -33.91 -6.957)"/><path d="m110.19 123.4-4.979-6.769H97.17a2.211 2.211 0 0 1-2.17-2.555 2.207 2.207 0 0 1 2.166-1.828h10c4.3 0 6.611-2.7 6.611-6.882 0-2.858-1.685-4.3-4.611-4.3H93.673l-3.761 21.464a2.43 2.43 0 0 1-2.392 2 2.448 2.448 0 0 1-2.392-2.851l3.889-22.06a4.27 4.27 0 0 1 4.2-3.52h16.841c5.634 0 8.725 3.242 8.725 8.364 0 5.6-3.009 9.74-7.747 11.425l3.46 4.242c.39.481.602 1.081.602 1.7a2.712 2.712 0 0 1-2.693 2.7 2.71 2.71 0 0 1-2.211-1.128l-.004-.002Z" style="fill:#fff;fill-rule:nonzero" transform="matrix(.48072 0 0 .48072 -8.139 -10.446)"/><path d="m157.411 122.677-2.3-5.476h-9.404a2.017 2.017 0 0 1-2.008-2.008c0-.44.145-.869.412-1.219a1.996 1.996 0 0 1 1.6-.8h7.725l-4.46-10.643L132.9 123.49a2.257 2.257 0 0 1-1.768.872 2.266 2.266 0 0 1-2.212-2.256c0-.484.155-.955.444-1.344l18.352-23.617a3.42 3.42 0 0 1 2.7-1.6c.98.001 1.847.657 2.114 1.6l9.951 23.392c.147.342.223.711.223 1.083a2.758 2.758 0 0 1-2.745 2.745h-.005a2.765 2.765 0 0 1-2.542-1.685l-.001-.003Z" style="fill:#fff;fill-rule:nonzero" transform="matrix(.48072 0 0 .48072 -13.36 -10.379)"/><path d="m177.418 119.489 3.505-19.909a4.279 4.279 0 0 1 4.2-3.52h17.224c4.972 0 8.1 2.106 8.1 6.138a7.084 7.084 0 0 1-5.167 7.273 5.243 5.243 0 0 1 3.445 5.265c0 5.6-4.513 9.778-10.793 9.778H181.6c-2.334-.008-4.25-1.931-4.25-4.265 0-.255.023-.509.068-.759v-.001Zm10.312-9.778a2.106 2.106 0 0 1 2.061-1.73h10.53c3.4 0 4.814-1.324 4.814-4.107 0-2.422-2.2-2.813-5.521-2.813h-13.96l-3.3 18.5h14.4c3.949 0 6.882-1.136 6.882-4.423 0-1.918-1.294-3.009-3.716-3.009h-10.13a2.11 2.11 0 0 1-2.061-2.46l.001.042Z" style="fill:#fff;fill-rule:nonzero" transform="matrix(.48072 0 0 .48072 -19.13 -10.441)"/><path d="m223.758 119.489 3.505-19.909a4.271 4.271 0 0 1 4.182-3.52h17.232c4.964 0 8.093 2.106 8.093 6.138a7.085 7.085 0 0 1-5.16 7.273 5.249 5.249 0 0 1 3.437 5.265c0 5.6-4.513 9.778-10.793 9.778h-16.303c-2.34 0-4.265-1.925-4.265-4.265 0-.255.023-.509.068-.759l.004-.001Zm10.312-9.778a2.097 2.097 0 0 1 2.053-1.73h10.53c3.407 0 4.814-1.324 4.814-4.107 0-2.422-2.189-2.813-5.513-2.813h-13.968L228.7 119.6h14.4c3.949 0 6.882-1.136 6.882-4.423 0-1.918-1.286-3.009-3.716-3.009H236.121a2.101 2.101 0 0 1-2.051-2.5v.043Z" style="fill:#fff;fill-rule:nonzero" transform="matrix(.48072 0 0 .48072 -24.652 -10.441)"/><path d="m269.929 121.994 4.2-23.918a2.459 2.459 0 0 1 2.414-2.016 2.455 2.455 0 0 1 2.407 2.866l-4.189 23.805a2.143 2.143 0 0 1-2.1 1.76h-.643a2.14 2.14 0 0 1-2.096-2.5l.007.003Z" style="fill:#fff;fill-rule:nonzero" transform="matrix(.48072 0 0 .48072 -30.158 -10.441)"/><path d="m293.457 121.578 3.64-20.594h-7.845a2.494 2.494 0 0 1-2.444-2.911 2.483 2.483 0 0 1 2.444-2.053h21.525a2.486 2.486 0 0 1 2.438 2.9 2.49 2.49 0 0 1-2.444 2.061h-8.71l-3.761 21.454a2.46 2.46 0 0 1-2.407 2.016h-.031a2.455 2.455 0 0 1-2.406-2.873h.001Z" style="fill:#fff;fill-rule:nonzero" transform="matrix(.48072 0 0 .48072 -32.168 -10.436)"/></svg>