<svg width="169" height="46" viewBox="0 0 169 46" fill="none" xmlns="http://www.w3.org/2000/svg">
<path d="M6.27785 26.0196C6.26016 26.0334 6.23928 26.0427 6.21713 26.0465C6.18849 26.0504 6.15933 26.0463 6.13293 26.0347C6.10653 26.0231 6.08393 26.0045 6.06766 25.9808C5.85708 25.6539 5.95418 21.7497 6.10182 20.1837C6.17854 19.4044 8.06241 16.5148 9.47345 14.8826C9.59933 14.7376 10.4127 13.7894 10.469 13.8316C10.5254 13.8738 9.89384 15.0448 9.86207 15.1085C8.84778 17.0524 7.49489 21.5635 6.85691 24.0717C6.45053 25.67 6.37122 25.9535 6.27785 26.0196Z" fill="white"/>
<path d="M14.7108 1.64291C17.1475 0.474305 18.7606 0.599835 19.6856 0.937346C20.047 1.05229 20.3816 1.23726 20.6702 1.48159C20.9588 1.72592 21.1956 2.02477 21.367 2.3609C21.7971 3.28269 20.9088 4.00848 20.378 4.44445C20.3055 4.50135 20.219 4.5719 20.1493 4.63503C20.6424 4.61614 21.7324 4.49025 22.7142 4.37484C26.798 3.89876 28.5634 3.7804 28.907 4.20318C28.9448 4.25165 28.9687 4.30934 28.9764 4.37025C28.9841 4.43115 28.9752 4.49305 28.9507 4.5495C28.8291 4.79475 28.4524 4.92884 27.7993 5.09551L27.7048 5.11984C21.0295 6.89012 16.7961 8.84509 16.7521 8.86454C5.38592 14.0927 3.19737 24.9068 2.47644 28.4613C2.28852 29.3975 2.21216 29.767 2.0305 29.8547C1.97649 29.8775 1.91672 29.8831 1.85951 29.8706C1.79538 29.8523 1.73645 29.8195 1.68736 29.7747C1.63828 29.7299 1.6004 29.6744 1.5767 29.6125C0.964266 28.3484 0.308384 19.5621 4.17378 12.6981C5.78174 9.84118 9.0636 6.21483 15.5868 5.04404C15.0907 4.8337 14.6928 4.44595 14.4715 3.95737C12.8423 4.94578 9.64197 6.06625 7.31473 6.7537C5.31037 7.3383 1.88477 8.23991 1.3576 7.60725C1.24331 7.46871 1.23246 7.26954 1.53572 6.85201C2.89659 4.96732 5.43369 3.56781 5.43369 3.56781C12.5565 -0.432303 14.7108 1.64291 14.7108 1.64291Z" fill="white"/>
<path d="M5.53025 2.85665C5.53025 2.85665 2.69499 2.53601 2.90237 2.02594C3.10975 1.51588 7.38647 0.0437627 10.6098 0.00110012C13.8331 -0.0415625 14.5779 1.1708 14.5779 1.1708C13.0564 0.124952 10.3363 0.266452 5.53025 2.85665Z" fill="white"/>
<path d="M28.4906 2.69857C28.0932 2.88935 27.7413 3.05251 27.2099 3.29762C27.078 3.35469 26.9369 3.38754 26.7934 3.39457L22.8642 3.83106C22.7496 3.84436 22.0013 3.92351 22.0221 3.81205C22.0429 3.70059 22.6471 3.43828 22.7539 3.39603L22.9868 3.29297C27.2701 1.54505 29.8875 0.738702 30.7956 0.878132C30.853 0.88311 30.9069 0.907509 30.9484 0.947271C30.9898 0.987031 31.0162 1.03975 31.0232 1.09666C31.051 1.26647 31.0879 1.45712 28.4906 2.69857Z" fill="white"/>
<path d="M2.0671 15.8972C1.96518 15.9677 1.84443 16.0063 1.72044 16.008C1.51516 16.0142 1.37247 15.9132 1.11667 15.7776C0.47224 15.4558 0.0495958 14.9565 0.00276237 14.485C-0.00902084 14.3407 0.0170251 14.1956 0.0783655 14.064C0.139706 13.9323 0.234251 13.8186 0.352802 13.7338C1.08359 13.1624 2.15292 13.0703 2.66926 13.3071C3.08278 13.4873 2.99937 13.6435 2.77124 14.0997C2.63831 14.3672 2.52227 14.6426 2.42379 14.9243C2.25777 15.368 2.2595 15.6705 2.0671 15.8972Z" fill="white"/>
<path d="M21.6145 28.1234C20.8585 28.1234 20.1805 28.0334 19.5805 27.8534C18.9805 27.6734 18.4645 27.3434 18.0325 26.8634C17.6005 26.3834 17.2705 25.6934 17.0425 24.7934C16.8145 23.8934 16.7005 22.7234 16.7005 21.2834C16.7005 19.8914 16.8205 18.7514 17.0605 17.8634C17.3005 16.9754 17.6365 16.2914 18.0685 15.8114C18.5125 15.3194 19.0345 14.9834 19.6345 14.8034C20.2345 14.6114 20.8945 14.5154 21.6145 14.5154C22.3585 14.5154 23.0125 14.5574 23.5765 14.6414C24.1525 14.7134 24.6385 14.8034 25.0345 14.9114C25.4425 15.0194 25.7665 15.1274 26.0065 15.2354V17.9534C25.7785 17.9054 25.4845 17.8574 25.1245 17.8094C24.7645 17.7614 24.3505 17.7254 23.8825 17.7014C23.4265 17.6654 22.9285 17.6474 22.3885 17.6474C21.9805 17.6474 21.6325 17.6894 21.3445 17.7734C21.0685 17.8574 20.8465 18.0254 20.6785 18.2774C20.5105 18.5294 20.3845 18.9014 20.3005 19.3934C20.2285 19.8734 20.1925 20.5154 20.1925 21.3194C20.1925 22.0394 20.2225 22.6394 20.2825 23.1194C20.3425 23.5994 20.4505 23.9774 20.6065 24.2534C20.7625 24.5174 20.9845 24.7094 21.2725 24.8294C21.5725 24.9374 21.9565 24.9914 22.4245 24.9914C23.3365 24.9914 24.0745 24.9794 24.6385 24.9554C25.2145 24.9194 25.6705 24.8774 26.0065 24.8294V27.5474C25.7065 27.6674 25.3525 27.7694 24.9445 27.8534C24.5485 27.9374 24.0805 28.0034 23.5405 28.0514C23.0005 28.0994 22.3585 28.1234 21.6145 28.1234Z" fill="white"/>
<path d="M29.8021 28.1234C29.0581 28.1234 28.4521 27.9014 27.9841 27.4574C27.5281 27.0134 27.3001 26.4134 27.3001 25.6574V24.6674C27.3001 23.9474 27.5641 23.3474 28.0921 22.8674C28.6201 22.3874 29.4601 22.1474 30.6121 22.1474H32.5561V21.8414C32.5561 21.6014 32.5141 21.4154 32.4301 21.2834C32.3461 21.1394 32.1721 21.0434 31.9081 20.9954C31.6561 20.9354 31.2541 20.9054 30.7021 20.9054H27.8761V18.9074C28.3801 18.7034 28.9561 18.5354 29.6041 18.4034C30.2641 18.2714 31.0681 18.2054 32.0161 18.2054C32.8321 18.2054 33.5401 18.3014 34.1401 18.4934C34.7521 18.6734 35.2201 19.0094 35.5441 19.5014C35.8801 19.9814 36.0481 20.6774 36.0481 21.5894V28.0154H33.2761L32.7361 27.0434C32.6161 27.1634 32.4661 27.2834 32.2861 27.4034C32.1181 27.5234 31.9141 27.6434 31.6741 27.7634C31.4341 27.8714 31.1581 27.9554 30.8461 28.0154C30.5341 28.0874 30.1861 28.1234 29.8021 28.1234ZM31.6381 25.7474C31.6981 25.7474 31.7641 25.7414 31.8361 25.7294C31.9081 25.7174 31.9801 25.7054 32.0521 25.6934C32.1241 25.6694 32.1901 25.6514 32.2501 25.6394C32.3221 25.6154 32.3821 25.5914 32.4301 25.5674C32.4781 25.5434 32.5201 25.5254 32.5561 25.5134V23.7674L31.8181 23.8754C31.4821 23.9234 31.2241 24.0134 31.0441 24.1454C30.8761 24.2654 30.7921 24.4574 30.7921 24.7214V25.0814C30.7921 25.2374 30.8221 25.3694 30.8821 25.4774C30.9541 25.5734 31.0501 25.6454 31.1701 25.6934C31.3021 25.7294 31.4581 25.7474 31.6381 25.7474Z" fill="white"/>
<path d="M41.7849 28.0154C40.9569 28.0154 40.2909 27.9074 39.7869 27.6914C39.2949 27.4634 38.9409 27.0854 38.7249 26.5574C38.5209 26.0174 38.4309 25.2854 38.4549 24.3614L38.5629 21.0854H37.0689V18.8534L38.7069 18.3134L39.1389 15.5954H41.9109V18.3134H43.8729V21.0854H41.9109V24.3434C41.9109 24.4994 41.9229 24.6374 41.9469 24.7574C41.9709 24.8654 42.0069 24.9614 42.0549 25.0454C42.1149 25.1174 42.1869 25.1774 42.2709 25.2254C42.3549 25.2614 42.4509 25.2854 42.5589 25.2974L43.8009 25.4234V28.0154H41.7849Z" fill="white"/>
<path d="M49.1527 28.1234C48.5407 28.1234 47.9767 28.0454 47.4607 27.8894C46.9447 27.7214 46.5007 27.4514 46.1287 27.0794C45.7567 26.7074 45.4687 26.2094 45.2647 25.5854C45.0607 24.9494 44.9587 24.1634 44.9587 23.2274C44.9587 22.2434 45.0487 21.4274 45.2287 20.7794C45.4207 20.1194 45.6967 19.5974 46.0567 19.2134C46.4167 18.8294 46.8667 18.5594 47.4067 18.4034C47.9467 18.2354 48.5647 18.1514 49.2607 18.1514C49.9087 18.1514 50.4907 18.1934 51.0067 18.2774C51.5347 18.3614 52.1167 18.5054 52.7527 18.7094V20.7074H50.3947C49.8787 20.7074 49.4767 20.7794 49.1887 20.9234C48.9127 21.0554 48.7207 21.3014 48.6127 21.6614C48.5047 22.0094 48.4507 22.5134 48.4507 23.1734C48.4507 23.8454 48.4987 24.3494 48.5947 24.6854C48.7027 25.0214 48.8947 25.2434 49.1707 25.3514C49.4587 25.4594 49.8787 25.5134 50.4307 25.5134H52.8787V27.4754C52.5787 27.5954 52.2127 27.7094 51.7807 27.8174C51.3607 27.9134 50.9227 27.9854 50.4667 28.0334C50.0107 28.0934 49.5727 28.1234 49.1527 28.1234Z" fill="white"/>
<path d="M54.2149 28.0154V14.2994H57.7069V19.2494C57.9829 18.9854 58.3789 18.7394 58.8949 18.5114C59.4229 18.2714 59.9509 18.1514 60.4789 18.1514C61.2469 18.1514 61.8469 18.2954 62.2789 18.5834C62.7109 18.8714 63.0169 19.2854 63.1969 19.8254C63.3769 20.3534 63.4669 20.9834 63.4669 21.7154V28.0154H59.9749V22.1834C59.9749 21.9434 59.9269 21.7574 59.8309 21.6254C59.7469 21.4934 59.6329 21.4034 59.4889 21.3554C59.3449 21.3074 59.1889 21.2834 59.0209 21.2834C58.8649 21.2834 58.7029 21.3134 58.5349 21.3734C58.3669 21.4214 58.2109 21.4874 58.0669 21.5714C57.9229 21.6554 57.8029 21.7454 57.7069 21.8414V28.0154H54.2149Z" fill="white"/>
<path d="M72.7299 28.0154V17.7734H69.3639V14.6414H79.5879V17.7734H76.2219V28.0154H72.7299Z" fill="white"/>
<path d="M80.8408 28.0154V14.2994H84.3328V19.2494C84.6088 18.9854 85.0048 18.7394 85.5208 18.5114C86.0488 18.2714 86.5768 18.1514 87.1048 18.1514C87.8728 18.1514 88.4728 18.2954 88.9048 18.5834C89.3368 18.8714 89.6428 19.2854 89.8228 19.8254C90.0028 20.3534 90.0928 20.9834 90.0928 21.7154V28.0154H86.6008V22.1834C86.6008 21.9434 86.5528 21.7574 86.4568 21.6254C86.3728 21.4934 86.2588 21.4034 86.1148 21.3554C85.9708 21.3074 85.8148 21.2834 85.6468 21.2834C85.4908 21.2834 85.3288 21.3134 85.1608 21.3734C84.9928 21.4214 84.8368 21.4874 84.6928 21.5714C84.5488 21.6554 84.4288 21.7454 84.3328 21.8414V28.0154H80.8408Z" fill="white"/>
<path d="M93.9918 28.1234C93.2478 28.1234 92.6418 27.9014 92.1738 27.4574C91.7178 27.0134 91.4898 26.4134 91.4898 25.6574V24.6674C91.4898 23.9474 91.7538 23.3474 92.2818 22.8674C92.8098 22.3874 93.6498 22.1474 94.8018 22.1474H96.7458V21.8414C96.7458 21.6014 96.7038 21.4154 96.6198 21.2834C96.5358 21.1394 96.3618 21.0434 96.0978 20.9954C95.8458 20.9354 95.4438 20.9054 94.8918 20.9054H92.0658V18.9074C92.5698 18.7034 93.1458 18.5354 93.7938 18.4034C94.4538 18.2714 95.2578 18.2054 96.2058 18.2054C97.0218 18.2054 97.7298 18.3014 98.3298 18.4934C98.9418 18.6734 99.4098 19.0094 99.7338 19.5014C100.07 19.9814 100.238 20.6774 100.238 21.5894V28.0154H97.4658L96.9258 27.0434C96.8058 27.1634 96.6558 27.2834 96.4758 27.4034C96.3078 27.5234 96.1038 27.6434 95.8638 27.7634C95.6238 27.8714 95.3478 27.9554 95.0358 28.0154C94.7238 28.0874 94.3758 28.1234 93.9918 28.1234ZM95.8278 25.7474C95.8878 25.7474 95.9538 25.7414 96.0258 25.7294C96.0978 25.7174 96.1698 25.7054 96.2418 25.6934C96.3138 25.6694 96.3798 25.6514 96.4398 25.6394C96.5118 25.6154 96.5718 25.5914 96.6198 25.5674C96.6678 25.5434 96.7098 25.5254 96.7458 25.5134V23.7674L96.0078 23.8754C95.6718 23.9234 95.4138 24.0134 95.2338 24.1454C95.0658 24.2654 94.9818 24.4574 94.9818 24.7214V25.0814C94.9818 25.2374 95.0118 25.3694 95.0718 25.4774C95.1438 25.5734 95.2398 25.6454 95.3598 25.6934C95.4918 25.7294 95.6478 25.7474 95.8278 25.7474Z" fill="white"/>
<path d="M105.975 28.0154C105.147 28.0154 104.481 27.9074 103.977 27.6914C103.485 27.4634 103.131 27.0854 102.915 26.5574C102.711 26.0174 102.621 25.2854 102.645 24.3614L102.753 21.0854H101.259V18.8534L102.897 18.3134L103.329 15.5954H106.101V18.3134H108.063V21.0854H106.101V24.3434C106.101 24.4994 106.113 24.6374 106.137 24.7574C106.161 24.8654 106.197 24.9614 106.245 25.0454C106.305 25.1174 106.377 25.1774 106.461 25.2254C106.545 25.2614 106.641 25.2854 106.749 25.2974L107.991 25.4234V28.0154H105.975Z" fill="white"/>
<path d="M114.278 28.0154V14.6414H119.984C120.572 14.6414 121.112 14.7134 121.604 14.8574C122.096 15.0014 122.522 15.2474 122.882 15.5954C123.242 15.9314 123.518 16.3874 123.71 16.9634C123.914 17.5394 124.016 18.2654 124.016 19.1414C124.016 19.6934 123.968 20.1734 123.872 20.5814C123.776 20.9894 123.644 21.3374 123.476 21.6254C123.32 21.9014 123.128 22.1354 122.9 22.3274C122.684 22.5194 122.45 22.6874 122.198 22.8314L124.52 28.0154H120.974L119.102 23.4074C118.994 23.4074 118.88 23.4074 118.76 23.4074C118.652 23.4074 118.544 23.4074 118.436 23.4074C118.328 23.4074 118.214 23.4074 118.094 23.4074C117.986 23.4074 117.878 23.4074 117.77 23.4074V28.0154H114.278ZM117.77 20.6354H119.354C119.546 20.6354 119.714 20.6114 119.858 20.5634C120.002 20.5034 120.122 20.4134 120.218 20.2934C120.326 20.1734 120.404 20.0234 120.452 19.8434C120.5 19.6514 120.524 19.4234 120.524 19.1594C120.524 18.8954 120.5 18.6734 120.452 18.4934C120.404 18.3134 120.326 18.1754 120.218 18.0794C120.122 17.9714 120.002 17.8934 119.858 17.8454C119.714 17.7974 119.546 17.7734 119.354 17.7734H117.77V20.6354Z" fill="white"/>
<path d="M127.776 28.1234C127.032 28.1234 126.426 27.9014 125.958 27.4574C125.502 27.0134 125.274 26.4134 125.274 25.6574V24.6674C125.274 23.9474 125.538 23.3474 126.066 22.8674C126.594 22.3874 127.434 22.1474 128.586 22.1474H130.53V21.8414C130.53 21.6014 130.488 21.4154 130.404 21.2834C130.32 21.1394 130.146 21.0434 129.882 20.9954C129.63 20.9354 129.228 20.9054 128.676 20.9054H125.85V18.9074C126.354 18.7034 126.93 18.5354 127.578 18.4034C128.238 18.2714 129.042 18.2054 129.99 18.2054C130.806 18.2054 131.514 18.3014 132.114 18.4934C132.726 18.6734 133.194 19.0094 133.518 19.5014C133.854 19.9814 134.022 20.6774 134.022 21.5894V28.0154H131.25L130.71 27.0434C130.59 27.1634 130.44 27.2834 130.26 27.4034C130.092 27.5234 129.888 27.6434 129.648 27.7634C129.408 27.8714 129.132 27.9554 128.82 28.0154C128.508 28.0874 128.16 28.1234 127.776 28.1234ZM129.612 25.7474C129.672 25.7474 129.738 25.7414 129.81 25.7294C129.882 25.7174 129.954 25.7054 130.026 25.6934C130.098 25.6694 130.164 25.6514 130.224 25.6394C130.296 25.6154 130.356 25.5914 130.404 25.5674C130.452 25.5434 130.494 25.5254 130.53 25.5134V23.7674L129.792 23.8754C129.456 23.9234 129.198 24.0134 129.018 24.1454C128.85 24.2654 128.766 24.4574 128.766 24.7214V25.0814C128.766 25.2374 128.796 25.3694 128.856 25.4774C128.928 25.5734 129.024 25.6454 129.144 25.6934C129.276 25.7294 129.432 25.7474 129.612 25.7474Z" fill="white"/>
<path d="M141.793 28.1234C141.385 28.1234 141.031 28.0814 140.731 27.9974C140.443 27.9134 140.179 27.7994 139.939 27.6554C139.711 27.4994 139.477 27.3254 139.237 27.1334L138.697 28.0154H135.745V14.2814H139.237V18.8534C139.561 18.6854 139.933 18.5294 140.353 18.3854C140.785 18.2294 141.205 18.1514 141.613 18.1514C142.477 18.1514 143.155 18.3314 143.647 18.6914C144.151 19.0514 144.505 19.6094 144.709 20.3654C144.925 21.1094 145.033 22.0814 145.033 23.2814C145.033 24.4214 144.913 25.3514 144.673 26.0714C144.433 26.7794 144.073 27.3014 143.593 27.6374C143.113 27.9614 142.513 28.1234 141.793 28.1234ZM140.425 25.2974C140.605 25.2974 140.779 25.2494 140.947 25.1534C141.115 25.0574 141.253 24.8534 141.361 24.5414C141.481 24.2294 141.541 23.7494 141.541 23.1014C141.541 22.4174 141.481 21.9254 141.361 21.6254C141.253 21.3254 141.109 21.1394 140.929 21.0674C140.761 20.9834 140.593 20.9414 140.425 20.9414C140.197 20.9414 139.963 20.9834 139.723 21.0674C139.495 21.1514 139.333 21.2294 139.237 21.3014V25.0274C139.369 25.0994 139.531 25.1654 139.723 25.2254C139.915 25.2734 140.149 25.2974 140.425 25.2974Z" fill="white"/>
<path d="M152.59 28.1234C152.182 28.1234 151.828 28.0814 151.528 27.9974C151.24 27.9134 150.976 27.7994 150.736 27.6554C150.508 27.4994 150.274 27.3254 150.034 27.1334L149.494 28.0154H146.542V14.2814H150.034V18.8534C150.358 18.6854 150.73 18.5294 151.15 18.3854C151.582 18.2294 152.002 18.1514 152.41 18.1514C153.274 18.1514 153.952 18.3314 154.444 18.6914C154.948 19.0514 155.302 19.6094 155.506 20.3654C155.722 21.1094 155.83 22.0814 155.83 23.2814C155.83 24.4214 155.71 25.3514 155.47 26.0714C155.23 26.7794 154.87 27.3014 154.39 27.6374C153.91 27.9614 153.31 28.1234 152.59 28.1234ZM151.222 25.2974C151.402 25.2974 151.576 25.2494 151.744 25.1534C151.912 25.0574 152.05 24.8534 152.158 24.5414C152.278 24.2294 152.338 23.7494 152.338 23.1014C152.338 22.4174 152.278 21.9254 152.158 21.6254C152.05 21.3254 151.906 21.1394 151.726 21.0674C151.558 20.9834 151.39 20.9414 151.222 20.9414C150.994 20.9414 150.76 20.9834 150.52 21.0674C150.292 21.1514 150.13 21.2294 150.034 21.3014V25.0274C150.166 25.0994 150.328 25.1654 150.52 25.2254C150.712 25.2734 150.946 25.2974 151.222 25.2974Z" fill="white"/>
<path d="M157.735 17.0894C157.447 17.0894 157.303 16.9514 157.303 16.6754V14.6774C157.303 14.3774 157.447 14.2274 157.735 14.2274H160.471C160.603 14.2274 160.699 14.2694 160.759 14.3534C160.831 14.4374 160.867 14.5454 160.867 14.6774V16.6754C160.867 16.9514 160.735 17.0894 160.471 17.0894H157.735ZM157.339 28.0154V18.3134H160.831V28.0154H157.339Z" fill="white"/>
<path d="M166.614 28.0154C165.786 28.0154 165.12 27.9074 164.616 27.6914C164.124 27.4634 163.77 27.0854 163.554 26.5574C163.35 26.0174 163.26 25.2854 163.284 24.3614L163.392 21.0854H161.898V18.8534L163.536 18.3134L163.967 15.5954H166.74V18.3134H168.702V21.0854H166.74V24.3434C166.74 24.4994 166.752 24.6374 166.776 24.7574C166.8 24.8654 166.835 24.9614 166.883 25.0454C166.943 25.1174 167.016 25.1774 167.1 25.2254C167.184 25.2614 167.28 25.2854 167.388 25.2974L168.63 25.4234V28.0154H166.614Z" fill="white"/>
<path d="M18 44.9248V35.1339H23.909V36.1856H19.1856V39.4939H23.603V40.5457H19.1856V43.8731H23.9855V44.9248H18Z" fill="white"/>
<path d="M31.4004 37.5816C31.3431 37.0972 31.1104 36.7211 30.7025 36.4533C30.2945 36.1856 29.7941 36.0518 29.2013 36.0518C28.7678 36.0518 28.3886 36.1219 28.0635 36.2621C27.7416 36.4024 27.4898 36.5952 27.3081 36.8406C27.1296 37.086 27.0404 37.3649 27.0404 37.6772C27.0404 37.9386 27.1025 38.1633 27.2268 38.3513C27.3543 38.5362 27.5169 38.6907 27.7145 38.815C27.9121 38.9362 28.1193 39.0365 28.336 39.1162C28.5527 39.1927 28.7519 39.2549 28.9336 39.3027L29.928 39.5704C30.1829 39.6373 30.4666 39.7298 30.7789 39.8477C31.0945 39.9656 31.3957 40.1266 31.6825 40.3305C31.9725 40.5313 32.2116 40.7895 32.3996 41.105C32.5877 41.4205 32.6817 41.8078 32.6817 42.2667C32.6817 42.7958 32.543 43.2739 32.2658 43.701C31.9917 44.128 31.5901 44.4675 31.061 44.7193C30.5351 44.9711 29.8961 45.0969 29.1439 45.0969C28.4428 45.0969 27.8356 44.9838 27.3225 44.7575C26.8125 44.5312 26.4109 44.2157 26.1177 43.8109C25.8277 43.4062 25.6635 42.936 25.6253 42.4006H26.8492C26.881 42.7703 27.0053 43.0763 27.2221 43.3185C27.442 43.5575 27.7193 43.736 28.0539 43.8539C28.3918 43.9687 28.7551 44.0261 29.1439 44.0261C29.5965 44.0261 30.0029 43.9528 30.363 43.8061C30.7232 43.6563 31.0084 43.4492 31.2188 43.1846C31.4291 42.9169 31.5343 42.6046 31.5343 42.2476C31.5343 41.9225 31.4435 41.658 31.2618 41.454C31.0801 41.25 30.8411 41.0843 30.5447 40.9568C30.2483 40.8293 29.928 40.7178 29.5838 40.6222L28.379 40.2779C27.6141 40.058 27.0085 39.7441 26.5623 39.3361C26.1161 38.9282 25.893 38.3943 25.893 37.7346C25.893 37.1864 26.0412 36.7083 26.3376 36.3004C26.6372 35.8892 27.0388 35.5705 27.5424 35.3442C28.0491 35.1147 28.6149 35 29.2395 35C29.8706 35 30.4315 35.1131 30.9224 35.3394C31.4132 35.5625 31.802 35.8685 32.0889 36.2573C32.3789 36.6462 32.5319 37.0876 32.5478 37.5816H31.4004Z" fill="white"/>
<path d="M34.0956 36.1856V35.1339H41.4388V36.1856H38.36V44.9248H37.1744V36.1856H34.0956Z" fill="white"/>
<path d="M46.2901 44.9248H43.2687V35.1339H46.4239C47.3737 35.1339 48.1865 35.3299 48.8621 35.7219C49.5378 36.1107 50.0557 36.6701 50.4159 37.3999C50.776 38.1266 50.9561 38.9967 50.9561 40.0102C50.9561 41.0301 50.7744 41.9082 50.4111 42.6444C50.0478 43.3775 49.5187 43.9416 48.8239 44.3368C48.1291 44.7288 47.2845 44.9248 46.2901 44.9248ZM44.4543 43.8731H46.2136C47.0231 43.8731 47.694 43.7169 48.2263 43.4046C48.7585 43.0922 49.1554 42.6476 49.4167 42.0707C49.678 41.4939 49.8087 40.807 49.8087 40.0102C49.8087 39.2198 49.6796 38.5393 49.4215 37.9688C49.1633 37.3952 48.7777 36.9553 48.2645 36.6494C47.7514 36.3402 47.1124 36.1856 46.3475 36.1856H44.4543V43.8731Z" fill="white"/>
<path d="M56.5591 44.9248V44.0643L59.7909 40.5265C60.1702 40.1122 60.4825 39.7521 60.728 39.4461C60.9734 39.1369 61.155 38.8469 61.273 38.576C61.3941 38.3019 61.4546 38.0151 61.4546 37.7155C61.4546 37.3713 61.3718 37.0733 61.206 36.8215C61.0435 36.5697 60.8204 36.3753 60.5367 36.2382C60.2531 36.1012 59.9343 36.0326 59.5806 36.0326C59.2045 36.0326 58.8762 36.1107 58.5957 36.2669C58.3185 36.4199 58.1033 36.635 57.9503 36.9123C57.8005 37.1896 57.7256 37.5147 57.7256 37.8876H56.5974C56.5974 37.3139 56.7296 36.8103 56.9942 36.3769C57.2587 35.9434 57.6189 35.6056 58.0746 35.3633C58.5336 35.1211 59.0483 35 59.6188 35C60.1925 35 60.7009 35.1211 61.1439 35.3633C61.5869 35.6056 61.9343 35.9322 62.1861 36.3434C62.4379 36.7545 62.5638 37.2119 62.5638 37.7155C62.5638 38.0756 62.4984 38.4278 62.3677 38.772C62.2403 39.113 62.0172 39.4939 61.6984 39.9146C61.3829 40.3321 60.9447 40.8421 60.3837 41.4445L58.1846 43.7966V43.8731H62.7359V44.9248H56.5591Z" fill="white"/>
<path d="M67.9039 45.0587C67.1836 45.0587 66.57 44.8627 66.0633 44.4707C65.5565 44.0755 65.1693 43.5034 64.9015 42.7544C64.6338 42.0022 64.5 41.0939 64.5 40.0293C64.5 38.9712 64.6338 38.0676 64.9015 37.3187C65.1725 36.5665 65.5613 35.9928 66.0681 35.5976C66.578 35.1992 67.1899 35 67.9039 35C68.6178 35 69.2281 35.1992 69.7349 35.5976C70.2448 35.9928 70.6337 36.5665 70.9014 37.3187C71.1723 38.0676 71.3078 38.9712 71.3078 40.0293C71.3078 41.0939 71.1739 42.0022 70.9062 42.7544C70.6384 43.5034 70.2512 44.0755 69.7444 44.4707C69.2377 44.8627 68.6242 45.0587 67.9039 45.0587ZM67.9039 44.0069C68.6178 44.0069 69.1723 43.6627 69.5676 42.9743C69.9628 42.2859 70.1604 41.3042 70.1604 40.0293C70.1604 39.1816 70.0695 38.4597 69.8879 37.8637C69.7094 37.2677 69.4512 36.8135 69.1134 36.5012C68.7787 36.1888 68.3756 36.0326 67.9039 36.0326C67.1963 36.0326 66.6433 36.3816 66.2449 37.0796C65.8465 37.7744 65.6473 38.7577 65.6473 40.0293C65.6473 40.8771 65.7366 41.5974 65.9151 42.1902C66.0935 42.7831 66.3501 43.234 66.6848 43.5432C67.0226 43.8524 67.429 44.0069 67.9039 44.0069Z" fill="white"/>
<path d="M73.1244 44.9248V44.0643L76.3562 40.5265C76.7355 40.1122 77.0478 39.7521 77.2933 39.4461C77.5387 39.1369 77.7203 38.8469 77.8383 38.576C77.9594 38.3019 78.0199 38.0151 78.0199 37.7155C78.0199 37.3713 77.9371 37.0733 77.7713 36.8215C77.6088 36.5697 77.3857 36.3753 77.102 36.2382C76.8184 36.1012 76.4996 36.0326 76.1459 36.0326C75.7698 36.0326 75.4415 36.1107 75.161 36.2669C74.8838 36.4199 74.6686 36.635 74.5156 36.9123C74.3658 37.1896 74.2909 37.5147 74.2909 37.8876H73.1627C73.1627 37.3139 73.2949 36.8103 73.5595 36.3769C73.824 35.9434 74.1842 35.6056 74.6399 35.3633C75.0989 35.1211 75.6136 35 76.1841 35C76.7578 35 77.2662 35.1211 77.7092 35.3633C78.1522 35.6056 78.4996 35.9322 78.7514 36.3434C79.0032 36.7545 79.1291 37.2119 79.1291 37.7155C79.1291 38.0756 79.0637 38.4278 78.933 38.772C78.8056 39.113 78.5825 39.4939 78.2637 39.9146C77.9482 40.3321 77.51 40.8421 76.949 41.4445L74.7499 43.7966V43.8731H79.3012V44.9248H73.1244Z" fill="white"/>
<path d="M81.2756 44.9248V44.0643L84.5074 40.5265C84.8867 40.1122 85.199 39.7521 85.4444 39.4461C85.6898 39.1369 85.8715 38.8469 85.9894 38.576C86.1105 38.3019 86.1711 38.0151 86.1711 37.7155C86.1711 37.3713 86.0882 37.0733 85.9225 36.8215C85.76 36.5697 85.5369 36.3753 85.2532 36.2382C84.9695 36.1012 84.6508 36.0326 84.297 36.0326C83.921 36.0326 83.5927 36.1107 83.3122 36.2669C83.0349 36.4199 82.8198 36.635 82.6668 36.9123C82.517 37.1896 82.4421 37.5147 82.4421 37.8876H81.3139C81.3139 37.3139 81.4461 36.8103 81.7107 36.3769C81.9752 35.9434 82.3353 35.6056 82.7911 35.3633C83.2501 35.1211 83.7648 35 84.3353 35C84.909 35 85.4173 35.1211 85.8604 35.3633C86.3034 35.6056 86.6508 35.9322 86.9026 36.3434C87.1543 36.7545 87.2802 37.2119 87.2802 37.7155C87.2802 38.0756 87.2149 38.4278 87.0842 38.772C86.9567 39.113 86.7336 39.4939 86.4149 39.9146C86.0994 40.3321 85.6612 40.8421 85.1002 41.4445L82.9011 43.7966V43.8731H87.4523V44.9248H81.2756Z" fill="white"/>
</svg>
